{
    "asset" : {
        "generator" : "Khronos glTF Blender I/O v1.1.46",
        "version" : "2.0"
    },
    "scene" : 0,
    "scenes" : [
        {
            "name" : "Scene",
            "nodes" : [
                0,
                1,
                2,
                3,
                4
            ]
        }
    ],
    "nodes" : [
        {
            "mesh" : 0,
            "name" : "Cube.001",
            "rotation" : [
                0.7071068286895752,
                0,
                0,
                0.7071067094802856
            ],
            "scale" : [
                1.75,
                1.750000238418579,
                0.354998916387558
            ],
            "translation" : [
                -0.020041346549987793,
                0.3499999940395355,
                3.500000476837158
            ]
        },
        {
            "mesh" : 1,
            "name" : "Cube.003",
            "rotation" : [
                0.5,
                -0.5000000596046448,
                0.5,
                0.4999999403953552
            ],
            "scale" : [
                1.7500003576278687,
                1.7500001192092896,
                0.354998916387558
            ],
            "translation" : [
                -3.5200414657592773,
                0.3499999940395355,
                0
            ]
        },
        {
            "mesh" : 2,
            "name" : "Cube.004",
            "rotation" : [
                0.5,
                0.5000000596046448,
                -0.5,
                0.4999999403953552
            ],
            "scale" : [
                1.7500003576278687,
                1.75,
                0.354998916387558
            ],
            "translation" : [
                -0.020041346549987793,
                0.3499999940395355,
                0
            ]
        },
        {
            "mesh" : 3,
            "name" : "Cube.005",
            "rotation" : [
                0.5,
                0.5000000596046448,
                -0.5,
                0.4999999403953552
            ],
            "scale" : [
                1.7500003576278687,
                1.7500001192092896,
                0.354998916387558
            ],
            "translation" : [
                3.4799585342407227,
                0.3499999940395355,
                0
            ]
        },
        {
            "mesh" : 4,
            "name" : "Cube.006",
            "rotation" : [
                0,
                0.7071068286895752,
                -0.7071067094802856,
                -1.1520232590100932e-07
            ],
            "scale" : [
                1.75,
                1.750000238418579,
                0.354998916387558
            ],
            "translation" : [
                -0.020041346549987793,
                0.3499999940395355,
                -3.500000476837158
            ]
        }
    ],
    "materials" : [
        {
            "doubleSided" : true,
            "emissiveFactor" : [
                0,
                0,
                0
            ],
            "name" : "Material.020",
            "pbrMetallicRoughness" : {
                "baseColorTexture" : {
                    "index" : 0,
                    "texCoord" : 0
                },
                "metallicFactor" : 0,
                "roughnessFactor" : 0.5
            }
        }
    ],
    "meshes" : [
        {
            "name" : "Cube.041",
            "primitives" : [
                {
                    "attributes" : {
                        "POSITION" : 0,
                        "NORMAL" : 1,
                        "TEXCOORD_0" : 2
                    },
                    "indices" : 3,
                    "material" : 0
                }
            ]
        },
        {
            "name" : "Cube.042",
            "primitives" : [
                {
                    "attributes" : {
                        "POSITION" : 4,
                        "NORMAL" : 5,
                        "TEXCOORD_0" : 6
                    },
                    "indices" : 7,
                    "material" : 0
                }
            ]
        },
        {
            "name" : "Cube.043",
            "primitives" : [
                {
                    "attributes" : {
                        "POSITION" : 8,
                        "NORMAL" : 9,
                        "TEXCOORD_0" : 10
                    },
                    "indices" : 11,
                    "material" : 0
                }
            ]
        },
        {
            "name" : "Cube.044",
            "primitives" : [
                {
                    "attributes" : {
                        "POSITION" : 12,
                        "NORMAL" : 13,
                        "TEXCOORD_0" : 14
                    },
                    "indices" : 7,
                    "material" : 0
                }
            ]
        },
        {
            "name" : "Cube.045",
            "primitives" : [
                {
                    "attributes" : {
                        "POSITION" : 15,
                        "NORMAL" : 16,
                        "TEXCOORD_0" : 17
                    },
                    "indices" : 18,
                    "material" : 0
                }
            ]
        }
    ],
    "textures" : [
        {
            "source" : 0
        }
    ],
    "images" : [
        {
            "mimeType" : "image/png",
            "name" : "Texture2",
            "uri" : "Texture2.png"
        }
    ],
    "accessors" : [
        {
            "bufferView" : 0,
            "componentType" : 5126,
            "count" : 89,
            "max" : [
                1,
                1,
                1
            ],
            "min" : [
                -1,
                -1,
                -1
            ],
            "type" : "VEC3"
        },
        {
            "bufferView" : 1,
            "componentType" : 5126,
            "count" : 89,
            "type" : "VEC3"
        },
        {
            "bufferView" : 2,
            "componentType" : 5126,
            "count" : 89,
            "type" : "VEC2"
        },
        {
            "bufferView" : 3,
            "componentType" : 5123,
            "count" : 132,
            "type" : "SCALAR"
        },
        {
            "bufferView" : 4,
            "componentType" : 5126,
            "count" : 157,
            "max" : [
                1,
                1,
                1
            ],
            "min" : [
                -1,
                -1,
                -1
            ],
            "type" : "VEC3"
        },
        {
            "bufferView" : 5,
            "componentType" : 5126,
            "count" : 157,
            "type" : "VEC3"
        },
        {
            "bufferView" : 6,
            "componentType" : 5126,
            "count" : 157,
            "type" : "VEC2"
        },
        {
            "bufferView" : 7,
            "componentType" : 5123,
            "count" : 228,
            "type" : "SCALAR"
        },
        {
            "bufferView" : 8,
            "componentType" : 5126,
            "count" : 203,
            "max" : [
                1,
                1,
                1
            ],
            "min" : [
                -1,
                -1,
                -1
            ],
            "type" : "VEC3"
        },
        {
            "bufferView" : 9,
            "componentType" : 5126,
            "count" : 203,
            "type" : "VEC3"
        },
        {
            "bufferView" : 10,
            "componentType" : 5126,
            "count" : 203,
            "type" : "VEC2"
        },
        {
            "bufferView" : 11,
            "componentType" : 5123,
            "count" : 348,
            "type" : "SCALAR"
        },
        {
            "bufferView" : 12,
            "componentType" : 5126,
            "count" : 157,
            "max" : [
                1,
                1,
                1
            ],
            "min" : [
                -1,
                -1,
                -1
            ],
            "type" : "VEC3"
        },
        {
            "bufferView" : 13,
            "componentType" : 5126,
            "count" : 157,
            "type" : "VEC3"
        },
        {
            "bufferView" : 14,
            "componentType" : 5126,
            "count" : 157,
            "type" : "VEC2"
        },
        {
            "bufferView" : 15,
            "componentType" : 5126,
            "count" : 112,
            "max" : [
                1,
                1,
                1
            ],
            "min" : [
                -1,
                -1,
                -1
            ],
            "type" : "VEC3"
        },
        {
            "bufferView" : 16,
            "componentType" : 5126,
            "count" : 112,
            "type" : "VEC3"
        },
        {
            "bufferView" : 17,
            "componentType" : 5126,
            "count" : 112,
            "type" : "VEC2"
        },
        {
            "bufferView" : 18,
            "componentType" : 5123,
            "count" : 168,
            "type" : "SCALAR"
        }
    ],
    "bufferViews" : [
        {
            "buffer" : 0,
            "byteLength" : 1068,
            "byteOffset" : 0
        },
        {
            "buffer" : 0,
            "byteLength" : 1068,
            "byteOffset" : 1068
        },
        {
            "buffer" : 0,
            "byteLength" : 712,
            "byteOffset" : 2136
        },
        {
            "buffer" : 0,
            "byteLength" : 264,
            "byteOffset" : 2848
        },
        {
            "buffer" : 0,
            "byteLength" : 1884,
            "byteOffset" : 3112
        },
        {
            "buffer" : 0,
            "byteLength" : 1884,
            "byteOffset" : 4996
        },
        {
            "buffer" : 0,
            "byteLength" : 1256,
            "byteOffset" : 6880
        },
        {
            "buffer" : 0,
            "byteLength" : 456,
            "byteOffset" : 8136
        },
        {
            "buffer" : 0,
            "byteLength" : 2436,
            "byteOffset" : 8592
        },
        {
            "buffer" : 0,
            "byteLength" : 2436,
            "byteOffset" : 11028
        },
        {
            "buffer" : 0,
            "byteLength" : 1624,
            "byteOffset" : 13464
        },
        {
            "buffer" : 0,
            "byteLength" : 696,
            "byteOffset" : 15088
        },
        {
            "buffer" : 0,
            "byteLength" : 1884,
            "byteOffset" : 15784
        },
        {
            "buffer" : 0,
            "byteLength" : 1884,
            "byteOffset" : 17668
        },
        {
            "buffer" : 0,
            "byteLength" : 1256,
            "byteOffset" : 19552
        },
        {
            "buffer" : 0,
            "byteLength" : 1344,
            "byteOffset" : 20808
        },
        {
            "buffer" : 0,
            "byteLength" : 1344,
            "byteOffset" : 22152
        },
        {
            "buffer" : 0,
            "byteLength" : 896,
            "byteOffset" : 23496
        },
        {
            "buffer" : 0,
            "byteLength" : 336,
            "byteOffset" : 24392
        }
    ],
    "buffers" : [
        {
            "byteLength" : 24728,
            "uri" : "Cross_TypeObj.bin"
        }
    ]
}
