{
    "asset" : {
        "generator" : "Khronos glTF Blender I/O v1.1.46",
        "version" : "2.0"
    },
    "scene" : 0,
    "scenes" : [
        {
            "name" : "Scene",
            "nodes" : [
                0
            ]
        }
    ],
    "nodes" : [
        {
            "mesh" : 0,
            "name" : "Cube.001",
            "rotation" : [
                0.7071068286895752,
                0,
                0,
                0.7071067094802856
            ],
            "scale" : [
                1.75,
                1.7500001192092896,
                1.7500001192092896
            ],
            "translation" : [
                -0.0019165277481079102,
                0,
                0.014742374420166016
            ]
        }
    ],
    "materials" : [
        {
            "doubleSided" : true,
            "emissiveFactor" : [
                0,
                0,
                0
            ],
            "name" : "Material_COLOR_0",
            "pbrMetallicRoughness" : {
                "baseColorTexture" : {
                    "index" : 0,
                    "texCoord" : 0
                },
                "metallicFactor" : 0,
                "roughnessFactor" : 0.4000000059604645
            }
        }
    ],
    "meshes" : [
        {
            "name" : "Cube.002",
            "primitives" : [
                {
                    "attributes" : {
                        "POSITION" : 0,
                        "NORMAL" : 1,
                        "TEXCOORD_0" : 2,
                        "COLOR_0" : 3
                    },
                    "indices" : 4,
                    "material" : 0
                }
            ]
        }
    ],
    "textures" : [
        {
            "source" : 0
        }
    ],
    "images" : [
        {
            "mimeType" : "image/png",
            "name" : "Texture2",
            "uri" : "Texture2.png"
        }
    ],
    "accessors" : [
        {
            "bufferView" : 0,
            "componentType" : 5126,
            "count" : 1920,
            "max" : [
                2.296874523162842,
                2.2968759536743164,
                1
            ],
            "min" : [
                -1.7031234502792358,
                -1.703126311302185,
                -1.000000238418579
            ],
            "type" : "VEC3"
        },
        {
            "bufferView" : 1,
            "componentType" : 5126,
            "count" : 1920,
            "type" : "VEC3"
        },
        {
            "bufferView" : 2,
            "componentType" : 5126,
            "count" : 1920,
            "type" : "VEC2"
        },
        {
            "bufferView" : 3,
            "componentType" : 5126,
            "count" : 1920,
            "type" : "VEC4"
        },
        {
            "bufferView" : 4,
            "componentType" : 5123,
            "count" : 1920,
            "type" : "SCALAR"
        }
    ],
    "bufferViews" : [
        {
            "buffer" : 0,
            "byteLength" : 23040,
            "byteOffset" : 0
        },
        {
            "buffer" : 0,
            "byteLength" : 23040,
            "byteOffset" : 23040
        },
        {
            "buffer" : 0,
            "byteLength" : 15360,
            "byteOffset" : 46080
        },
        {
            "buffer" : 0,
            "byteLength" : 30720,
            "byteOffset" : 61440
        },
        {
            "buffer" : 0,
            "byteLength" : 3840,
            "byteOffset" : 92160
        }
    ],
    "buffers" : [
        {
            "byteLength" : 96000,
            "uri" : "L_TypeObj.bin"
        }
    ]
}
