{
    "asset" : {
        "generator" : "Khronos glTF Blender I/O v1.1.46",
        "version" : "2.0"
    },
    "scene" : 0,
    "scenes" : [
        {
            "name" : "Scene",
            "nodes" : [
                0
            ]
        }
    ],
    "nodes" : [
        {
            "mesh" : 0,
            "name" : "Cube.001",
            "rotation" : [
                1,
                0,
                0,
                -1.3435884227419592e-07
            ],
            "scale" : [
                1.75,
                1.7500001192092896,
                1.7500001192092896
            ]
        }
    ],
    "materials" : [
        {
            "doubleSided" : true,
            "emissiveFactor" : [
                0,
                0,
                0
            ],
            "name" : "Material.013",
            "pbrMetallicRoughness" : {
                "baseColorFactor" : [
                    0.0864032581448555,
                    0.05019303411245346,
                    0.8000000715255737,
                    1
                ],
                "metallicFactor" : 0,
                "roughnessFactor" : 0.5
            }
        }
    ],
    "meshes" : [
        {
            "name" : "Cube.002",
            "primitives" : [
                {
                    "attributes" : {
                        "POSITION" : 0,
                        "NORMAL" : 1,
                        "TEXCOORD_0" : 2,
                        "COLOR_0" : 3
                    },
                    "indices" : 4,
                    "material" : 0
                }
            ]
        }
    ],
    "accessors" : [
        {
            "bufferView" : 0,
            "componentType" : 5126,
            "count" : 1923,
            "max" : [
                3.0683038234710693,
                0.9999998211860657,
                0.9316980838775635
            ],
            "min" : [
                -0.9316943287849426,
                -1.0000004768371582,
                -3.0683040618896484
            ],
            "type" : "VEC3"
        },
        {
            "bufferView" : 1,
            "componentType" : 5126,
            "count" : 1923,
            "type" : "VEC3"
        },
        {
            "bufferView" : 2,
            "componentType" : 5126,
            "count" : 1923,
            "type" : "VEC2"
        },
        {
            "bufferView" : 3,
            "componentType" : 5126,
            "count" : 1923,
            "type" : "VEC4"
        },
        {
            "bufferView" : 4,
            "componentType" : 5123,
            "count" : 1923,
            "type" : "SCALAR"
        }
    ],
    "bufferViews" : [
        {
            "buffer" : 0,
            "byteLength" : 23076,
            "byteOffset" : 0
        },
        {
            "buffer" : 0,
            "byteLength" : 23076,
            "byteOffset" : 23076
        },
        {
            "buffer" : 0,
            "byteLength" : 15384,
            "byteOffset" : 46152
        },
        {
            "buffer" : 0,
            "byteLength" : 30768,
            "byteOffset" : 61536
        },
        {
            "buffer" : 0,
            "byteLength" : 3846,
            "byteOffset" : 92304
        }
    ],
    "buffers" : [
        {
            "byteLength" : 96152,
            "uri" : "L_TypeObjtType4.bin"
        }
    ]
}
